<?xml version="1.0" standalone="no"?>
<!DOCTYPE svg PUBLIC "-//W3C//DTD SVG 20010904//EN"
 "http://www.w3.org/TR/2001/REC-SVG-20010904/DTD/svg10.dtd">
<svg version="1.0" xmlns="http://www.w3.org/2000/svg"
 width="500.000000pt" height="500.000000pt" viewBox="0 0 500.000000 500.000000"
 preserveAspectRatio="xMidYMid meet">
<metadata>
Created by potrace 1.11, written by Peter Selinger 2001-2013
</metadata>
<g transform="translate(0.000000,500.000000) scale(0.100000,-0.100000)"
fill="#000000" stroke="none">
<path d="M0 2500 l0 -2500 2500 0 2500 0 0 2500 0 2500 -2500 0 -2500 0 0
-2500z m4038 1208 l-3 -163 -60 -7 c-94 -12 -142 -34 -173 -81 l-27 -40 -6
-321 c-4 -206 -10 -334 -18 -358 -19 -58 -72 -129 -124 -164 -40 -27 -101 -51
-206 -81 -22 -6 -7 -13 58 -29 130 -30 220 -95 263 -189 22 -48 23 -62 28
-385 5 -310 7 -338 24 -365 36 -55 66 -71 171 -89 l70 -12 0 -160 0 -159 -115
2 c-264 4 -424 71 -490 206 -42 88 -50 161 -50 501 0 283 -1 302 -21 343 -42
87 -144 139 -296 150 l-83 6 0 172 0 172 80 7 c150 12 255 62 298 139 15 28
18 77 23 387 6 383 11 415 65 502 69 109 252 174 497 177 l97 1 -2 -162z
m-2656 -45 c17 -15 18 -42 18 -450 l0 -433 240 0 240 0 0 427 c0 424 0 427 22
450 21 23 25 23 231 23 182 0 213 -2 229 -17 17 -15 18 -64 18 -1159 l0 -1143
-22 -15 c-19 -13 -58 -16 -227 -16 -196 0 -206 1 -228 22 l-23 21 0 479 0 478
-240 0 -240 0 0 -484 0 -485 -22 -15 c-19 -13 -58 -16 -227 -16 -196 0 -206 1
-228 22 l-23 21 0 1131 0 1130 22 23 c21 23 25 23 231 23 182 0 213 -2 229
-17z"/>
</g>
</svg>
